<svg xmlns="http://www.w3.org/2000/svg" viewBox="0 0 1000 600"><defs><style>.cls-1,.cls-2{fill:none;}.cls-1{stroke:#000;stroke-width:24px;}.cls-1,.cls-2,.cls-3{stroke-miterlimit:10;}.cls-2,.cls-3{stroke:red;}.cls-2{stroke-width:3px;}.cls-3{fill:#fff;stroke-width:3.37px;}</style></defs><g id="Layer_2" data-name="Layer 2"><path class="cls-1" d="M150,435.93c0-193.3,156.7-350,350-350s350,156.7,350,350"/><path class="cls-2" d="M150,435.93c0-193.3,156.7-350,350-350s350,156.7,350,350"/><line class="cls-2" x1="500" y1="85.93" x2="306.7" y2="85.92"/><line class="cls-2" x1="150" y1="435.93" x2="150" y2="242.63"/><line class="cls-2" x1="850" y1="435.93" x2="850" y2="242.63"/><line class="cls-2" x1="693.3" y1="85.93" x2="500" y2="85.93"/><circle class="cls-3" cx="306.7" cy="85.92" r="12"/><circle class="cls-3" cx="693.3" cy="85.93" r="12"/><circle class="cls-3" cx="150" cy="242.63" r="12"/><circle class="cls-3" cx="850" cy="242.63" r="12"/><rect class="cls-3" x="488" y="73.93" width="24" height="24"/><rect class="cls-3" x="138" y="423.93" width="24" height="24"/><rect class="cls-3" x="838" y="423.93" width="24" height="24"/></g></svg>