<svg xmlns="http://www.w3.org/2000/svg" viewBox="0 0 1000 600"><defs><style>.cls-1{font-size:30px;font-family:WorkSans-Regular, Work Sans;}.cls-2{letter-spacing:-0.01em;}.cls-3{letter-spacing:0em;}.cls-4{letter-spacing:-0.01em;}.cls-5{letter-spacing:-0.07em;}.cls-6{letter-spacing:-0.06em;}.cls-7,.cls-8{fill:none;}.cls-7{stroke:#000;stroke-width:24px;}.cls-7,.cls-8,.cls-9{stroke-miterlimit:10;}.cls-8,.cls-9{stroke:red;}.cls-8{stroke-width:3px;}.cls-9{fill:#fff;stroke-width:3.37px;}</style></defs><g id="Layer_2" data-name="Layer 2"><text class="cls-1" transform="translate(175.74 442.79)">on-curve poi<tspan class="cls-2" x="188.22" y="0">n</tspan><tspan class="cls-3" x="206.58" y="0">t</tspan></text><text class="cls-1" transform="translate(500 138.22)">on-curve poi<tspan class="cls-2" x="188.22" y="0">n</tspan><tspan class="cls-3" x="206.58" y="0">t</tspan></text><text class="cls-1" transform="translate(150 55.92)"><tspan class="cls-4">o</tspan><tspan class="cls-5" x="17.97" y="0">f</tspan><tspan class="cls-6" x="27.66" y="0">f</tspan><tspan x="37.59" y="0">-curve poi</tspan><tspan class="cls-2" x="189" y="0">n</tspan><tspan class="cls-3" x="207.36" y="0">t</tspan></text><text class="cls-1" transform="translate(3.67 196.19)"><tspan class="cls-4">o</tspan><tspan class="cls-5" x="17.97" y="0">f</tspan><tspan class="cls-6" x="27.66" y="0">f</tspan><tspan x="37.59" y="0">-curve poi</tspan><tspan class="cls-2" x="189" y="0">n</tspan><tspan class="cls-3" x="207.36" y="0">t</tspan></text><path class="cls-7" d="M150,435.93c0-193.3,156.7-350,350-350"/><path class="cls-8" d="M150,435.93c0-193.3,156.7-350,350-350"/><line class="cls-8" x1="500" y1="85.93" x2="306.7" y2="85.92"/><line class="cls-8" x1="150" y1="435.93" x2="150" y2="242.63"/><circle class="cls-9" cx="306.7" cy="85.92" r="12"/><circle class="cls-9" cx="150" cy="242.63" r="12"/><rect class="cls-9" x="488" y="73.93" width="24" height="24"/><rect class="cls-9" x="138" y="423.93" width="24" height="24"/></g></svg>